
<svg xmlns="http://www.w3.org/2000/svg" xmlns:xlink="http://www.w3.org/1999/xlink" width="400" zoomAndPan="magnify" viewBox="0 0 300 50.999998" height="68" preserveAspectRatio="xMidYMid meet" version="1.0"><defs><g/></defs><g fill="#5271ff" fill-opacity="1"><g transform="translate(6.410162, 45.374996)"><g><path d="M 19.125 0.515625 C 16.070312 0.515625 13.378906 -0.175781 11.046875 -1.5625 C 8.722656 -2.957031 6.90625 -5.054688 5.59375 -7.859375 C 4.28125 -10.660156 3.625 -14.101562 3.625 -18.1875 C 3.625 -22.269531 4.328125 -25.710938 5.734375 -28.515625 C 7.140625 -31.316406 9.082031 -33.410156 11.5625 -34.796875 C 14.050781 -36.191406 16.921875 -36.890625 20.171875 -36.890625 C 23.660156 -36.890625 26.523438 -36.265625 28.765625 -35.015625 C 31.003906 -33.765625 32.585938 -31.894531 33.515625 -29.40625 L 30.71875 -27.765625 L 30.109375 -27.765625 C 29.160156 -29.660156 27.878906 -31.015625 26.265625 -31.828125 C 24.660156 -32.648438 22.628906 -33.0625 20.171875 -33.0625 C 12.191406 -33.0625 8.203125 -28.101562 8.203125 -18.1875 C 8.203125 -13.03125 9.207031 -9.265625 11.21875 -6.890625 C 13.226562 -4.515625 16.039062 -3.328125 19.65625 -3.328125 C 22.96875 -3.328125 25.445312 -4.082031 27.09375 -5.59375 C 28.75 -7.101562 29.578125 -9.484375 29.578125 -12.734375 L 29.578125 -15.953125 L 19.234375 -15.953125 L 19.234375 -19.375 L 33.734375 -19.375 L 33.734375 0 L 29.78125 0 L 29.78125 -4.875 L 29.265625 -5 C 28.296875 -3.125 26.953125 -1.734375 25.234375 -0.828125 C 23.523438 0.0664062 21.488281 0.515625 19.125 0.515625 Z M 19.125 0.515625 "/></g></g></g><g fill="#5271ff" fill-opacity="1"><g transform="translate(44.226931, 45.374996)"><g><path d="M 5.5 0 L 5.5 -36.375 L 18.703125 -36.375 C 21.140625 -36.375 23.1875 -35.96875 24.84375 -35.15625 C 26.507812 -34.351562 27.753906 -33.21875 28.578125 -31.75 C 29.410156 -30.289062 29.828125 -28.554688 29.828125 -26.546875 C 29.828125 -24.285156 29.265625 -22.421875 28.140625 -20.953125 C 27.015625 -19.492188 25.253906 -18.398438 22.859375 -17.671875 L 22.859375 -17.140625 C 24.035156 -16.679688 25 -15.953125 25.75 -14.953125 C 26.5 -13.953125 27.1875 -12.46875 27.8125 -10.5 L 31.171875 0 L 26.765625 0 L 23.140625 -11.125 C 22.703125 -12.4375 22.203125 -13.460938 21.640625 -14.203125 C 21.078125 -14.953125 20.363281 -15.492188 19.5 -15.828125 C 18.644531 -16.160156 17.550781 -16.328125 16.21875 -16.328125 L 9.78125 -16.328125 L 9.78125 0 Z M 18.609375 -19.953125 C 20.878906 -19.953125 22.570312 -20.476562 23.6875 -21.53125 C 24.800781 -22.582031 25.359375 -24.1875 25.359375 -26.34375 C 25.359375 -28.5 24.800781 -30.101562 23.6875 -31.15625 C 22.570312 -32.207031 20.878906 -32.734375 18.609375 -32.734375 L 9.78125 -32.734375 L 9.78125 -19.953125 Z M 18.609375 -19.953125 "/></g></g></g><g fill="#5271ff" fill-opacity="1"><g transform="translate(77.913711, 45.374996)"><g><path d="M 19.953125 0.515625 C 16.796875 0.515625 13.988281 -0.160156 11.53125 -1.515625 C 9.082031 -2.878906 7.148438 -4.957031 5.734375 -7.75 C 4.328125 -10.539062 3.625 -14.019531 3.625 -18.1875 C 3.625 -22.351562 4.328125 -25.832031 5.734375 -28.625 C 7.148438 -31.414062 9.082031 -33.488281 11.53125 -34.84375 C 13.988281 -36.207031 16.796875 -36.890625 19.953125 -36.890625 C 23.109375 -36.890625 25.910156 -36.207031 28.359375 -34.84375 C 30.816406 -33.488281 32.75 -31.414062 34.15625 -28.625 C 35.570312 -25.832031 36.28125 -22.351562 36.28125 -18.1875 C 36.28125 -14.019531 35.570312 -10.539062 34.15625 -7.75 C 32.75 -4.957031 30.816406 -2.878906 28.359375 -1.515625 C 25.910156 -0.160156 23.109375 0.515625 19.953125 0.515625 Z M 19.953125 -3.4375 C 23.734375 -3.4375 26.632812 -4.617188 28.65625 -6.984375 C 30.6875 -9.347656 31.703125 -13.082031 31.703125 -18.1875 C 31.703125 -23.289062 30.6875 -27.023438 28.65625 -29.390625 C 26.632812 -31.753906 23.734375 -32.9375 19.953125 -32.9375 C 12.117188 -32.9375 8.203125 -28.019531 8.203125 -18.1875 C 8.203125 -8.351562 12.117188 -3.4375 19.953125 -3.4375 Z M 19.953125 -3.4375 "/></g></g></g><g fill="#5271ff" fill-opacity="1"><g transform="translate(117.820354, 45.374996)"><g><path d="M 15.890625 0 L 10.296875 0 L 1.96875 -36.375 L 6.1875 -36.375 L 13.03125 -6.296875 L 13.65625 -6.296875 L 21.8125 -36.375 L 25.78125 -36.375 L 33.9375 -6.296875 L 34.5625 -6.296875 L 41.421875 -36.375 L 45.53125 -36.375 L 37.21875 0 L 31.59375 0 L 24.015625 -27.546875 L 23.484375 -27.546875 Z M 15.890625 0 "/></g></g></g><g fill="#5271ff" fill-opacity="1"><g transform="translate(165.315231, 45.374996)"><g><path d="M 28.390625 -36.375 L 28.390625 -32.734375 L 17 -32.734375 L 17 0 L 12.734375 0 L 12.734375 -32.734375 L 1.34375 -32.734375 L 1.34375 -36.375 Z M 28.390625 -36.375 "/></g></g></g><g fill="#5271ff" fill-opacity="1"><g transform="translate(195.021298, 45.374996)"><g><path d="M 28.6875 -21.625 L 28.6875 -36.375 L 32.9375 -36.375 L 32.9375 0 L 28.6875 0 L 28.6875 -17.984375 L 9.78125 -17.984375 L 9.78125 0 L 5.5 0 L 5.5 -36.375 L 9.78125 -36.375 L 9.78125 -21.625 Z M 28.6875 -21.625 "/></g></g></g><g fill="#5271ff" fill-opacity="1"><g transform="translate(233.484933, 45.374996)"><g><path d="M 9.78125 -36.375 L 9.78125 -3.53125 L 27.296875 -3.53125 L 27.296875 0 L 5.5 0 L 5.5 -36.375 Z M 9.78125 -36.375 "/></g></g></g><g fill="#5271ff" fill-opacity="1"><g transform="translate(262.32022, 45.374996)"><g><path d="M 17.765625 0 L 13.515625 0 L 13.515625 -14.28125 L 0.953125 -36.375 L 5.625 -36.375 L 15.421875 -19.328125 L 16.046875 -19.328125 L 25.78125 -36.375 L 30.359375 -36.375 L 17.765625 -14.28125 Z M 17.765625 0 "/></g></g></g></svg>